<svg xmlns="http://www.w3.org/2000/svg" viewBox="0 0 64 64">
  <defs>
    <linearGradient id="g" x1="0" y1="0" x2="1" y2="1">
      <stop offset="0%" stop-color="#4f46e5"/>
      <stop offset="100%" stop-color="#7c3aed"/>
    </linearGradient>
  </defs>
  <rect width="64" height="64" rx="14" fill="url(#g)"/>
  <g fill="#fff">
    <path d="M18 22h28a4 4 0 0 1 4 4v12a8 8 0 0 1-8 8H22a8 8 0 0 1-8-8V26a4 4 0 0 1 4-4Z" opacity=".92"/>
    <path d="M22 30h20a2 2 0 0 1 0 4H22a2 2 0 0 1 0-4Z"/>
    <circle cx="46" cy="36" r="3"/>
  </g>
</svg>
