<svg xmlns="http://www.w3.org/2000/svg" width="1200" height="750" viewBox="0 0 1200 750" fill="none">
  <defs>
    <linearGradient id="grad" x1="0" y1="0" x2="1" y2="1">
      <stop offset="0%" stop-color="#4f46e5"/>
      <stop offset="100%" stop-color="#7c3aed"/>
    </linearGradient>
    <filter id="shadow" x="-50%" y="-50%" width="200%" height="200%">
      <feDropShadow dx="0" dy="20" stdDeviation="20" flood-color="#020617" flood-opacity="0.65"/>
    </filter>
  </defs>
  <rect width="1200" height="750" rx="28" fill="#0b1020"/>
  <g filter="url(#shadow)">
    <rect x="80" y="90" width="1040" height="570" rx="18" fill="#0f172a" stroke="#334155"/>
    <rect x="80" y="130" width="1040" height="70" rx="14" fill="#0b1224"/>
    <circle cx="120" cy="165" r="8" fill="#ef4444"/>
    <circle cx="150" cy="165" r="8" fill="#f59e0b"/>
    <circle cx="180" cy="165" r="8" fill="#10b981"/>

    <rect x="120" y="240" width="240" height="180" rx="14" fill="#0b1224" stroke="#243041"/>
    <rect x="120" y="450" width="240" height="120" rx="14" fill="#0b1224" stroke="#243041"/>

    <rect x="380" y="240" width="300" height="330" rx="14" fill="#0b1224" stroke="#243041"/>

    <rect x="700" y="240" width="380" height="210" rx="14" fill="#0b1224" stroke="#243041"/>
    <rect x="700" y="470" width="380" height="100" rx="14" fill="#0b1224" stroke="#243041"/>

    <rect x="410" y="265" width="240" height="14" rx="7" fill="#1f2a44"/>
    <rect x="410" y="290" width="200" height="10" rx="5" fill="#1f2a44"/>
    <rect x="410" y="310" width="220" height="10" rx="5" fill="#1f2a44"/>

    <rect x="140" y="260" width="140" height="12" rx="6" fill="#1f2a44"/>
    <rect x="140" y="285" width="160" height="10" rx="5" fill="#1f2a44"/>
    <rect x="140" y="305" width="160" height="10" rx="5" fill="#1f2a44"/>

    <rect x="720" y="265" width="180" height="12" rx="6" fill="#1f2a44"/>
    <rect x="720" y="288" width="320" height="140" rx="10" fill="#0b1020" stroke="#1e293b"/>

    <rect x="720" y="495" width="240" height="12" rx="6" fill="#1f2a44"/>
    <rect x="720" y="518" width="300" height="36" rx="8" fill="url(#grad)"/>
  </g>
  <g opacity="0.5">
    <circle cx="1040" cy="90" r="120" fill="#4f46e5"/>
    <circle cx="1060" cy="70" r="70" fill="#a855f7"/>
    <circle cx="1080" cy="60" r="40" fill="#ec4899"/>
  </g>
</svg>
